# xmcd CD database file
#
# Track frame offsets:
#	150
#	18902
#	36250
#	59347
#	71785
#	90545
#	108429
#	125875
#	151957
#	169995
#	190692
#	208257
#	225577
#	246100
#	268175
#
# Disc length: 3800 seconds
#
# Revision: 2
# Processed by: cddbd v1.5.2PL0 Copyright (c) Steve Scherf et al.
# Submitted via: CDex 1.51
#
DISCID=d70ed60f
DTITLE=Yanni - In The Mirror
DYEAR=1997
DGENRE=New Age
TTITLE0=In The Mirror
TTITLE1=In The Morning Light
TTITLE2=A Love For Life
TTITLE3=One Man's Dream
TTITLE4=Within Attraction
TTITLE5=Forbidden Dreams
TTITLE6=Once Upon A Time
TTITLE7=Chasing Shadows
TTITLE8=Aria
TTITLE9=Quiet Man
TTITLE10=Enchantment
TTITLE11=So Long My Friend
TTITLE12=Before I Go
TTITLE13=The End Of August
TTITLE14=Face In The Photograph
EXTD=YEAR: 1997
EXTT0=
EXTT1=
EXTT2=
EXTT3=
EXTT4=
EXTT5=
EXTT6=
EXTT7=
EXTT8=
EXTT9=
EXTT10=
EXTT11=
EXTT12=
EXTT13=
EXTT14=
PLAYORDER=
